<svg xmlns="http://www.w3.org/2000/svg" xml:space="preserve" fill-rule="evenodd" clip-rule="evenodd" image-rendering="optimizeQuality" shape-rendering="geometricPrecision" text-rendering="geometricPrecision" viewBox="0 0 28436.87 3822">
	<path fill="#ff005a" d="M5987.85 3445c0 104-37 193-110 267-73 73-162 110-267 110s-194-37-267-110c-73-74-110-163-110-267V476c0-104 37-193 110-267 73-73 162-109 267-109s194 36 267 109c73 74 110 163 110 267zm5235-1165v788h1223c148 0 264-37 348-110 73-66 110-147 110-244-2-104-43-200-123-287-89-98-201-147-335-147zm0-1427v788h1223c127-1 230-45 308-131 70-75 106-166 108-274 0-105-34-193-102-265-75-78-180-118-314-118zm1223-754c370 0 662 114 877 341 191 206 288 459 288 759 0 338-131 594-390 767 296 197 445 470 447 819 0 279-102 517-306 712-225 217-531 325-916 325h-1600c-104 0-193-37-267-110-73-74-110-162-110-267V476c0-104 37-193 110-266 74-74 163-111 267-111zm-4178 754c-305 0-566 109-783 325-216 216-324 477-324 783 0 305 108 566 324 782 217 217 478 325 783 325 307 0 569-108 785-325 215-216 322-477 322-782 0-306-107-567-322-783-216-216-478-325-785-325zm1317-209c362 363 544 802 544 1317 0 513-182 952-544 1316-363 363-802 545-1317 545-513 0-952-182-1317-545-363-364-544-803-544-1316 0-515 181-954 544-1317 365-363 804-545 1317-545 515 0 954 182 1317 545zm-7581 32c19 214 30 427 37 640 2 67 4 134 5 201 49-46 97-92 146-138 156-146 314-289 479-426 59-50 147-41 197 18 44 53 42 128 0 179-137 164-281 323-426 478-46 49-92 98-138 146l200 6c214 7 427 17 640 37 77 7 134 75 127 152-7 68-61 120-127 126-213 20-426 30-640 37-67 3-133 5-200 6 46 49 92 97 137 146 146 156 290 314 427 479 49 59 41 147-18 197-53 43-128 42-179 0-165-137-323-281-479-427-49-45-97-91-145-137l-6 200c-7 213-18 427-37 640-7 77-76 134-153 126-68-6-120-60-126-126-20-213-30-427-37-640l-6-200c-48 46-96 92-145 137-156 146-314 290-479 427-60 49-148 41-197-19-44-52-42-128 0-178 137-165 280-323 426-479 46-49 92-97 138-146-67-1-134-3-201-5-213-7-426-18-639-38-77-7-134-75-127-152 7-68 61-120 127-126 213-20 426-30 639-37l201-6c-46-48-92-97-138-146-146-155-289-313-426-478-49-60-41-148 18-197 53-44 128-42 179 0 165 137 323 280 479 426 49 46 97 92 145 138l6-201c7-213 17-426 37-640 7-76 75-133 152-126 68 6 121 61 127 126zm1178 178c59-59 59-155 0-214-60-59-155-59-215 0-59 59-59 155 0 214 60 59 155 59 215 0zm-2636 2207c-59 59-59 155 0 214s155 59 214 0 59-155 0-214-155-59-214 0zm2422 214c59 59 154 59 214 0 59-59 59-155 0-214-60-59-155-59-214 0-60 59-60 155 0 214zm-2208-2635c-59-60-155-60-214 0-59 59-59 155 0 214s155 59 214 0 59-155 0-214zm2816 1469c84 0 151-68 151-152 0-83-67-151-151-151s-151 68-151 151c0 84 67 152 151 152zm-3424-303c-84 0-152 68-152 151 0 84 68 152 152 152 83 0 151-68 151-152 0-83-68-151-151-151zm1561 1863c0 84 67 152 151 152s151-68 151-152c0-83-67-151-151-151s-151 68-151 151zm302-3424c0-83-67-151-151-151s-151 68-151 151c0 84 67 152 151 152s151-68 151-152z" class="fil2"/>
	<path fill="#919191" fill-rule="nonzero" d="M15534.85 1645h281l421-1066v1066h306V53h-403l-463 1179-461-1179h-404v1592h306V587Zm2005-499c0 160-107 248-218 248-124 0-206-73-206-239V461h-308v754c0 308 173 452 410 452 151 0 282-73 346-177v155h281V461h-305zm870 499V53h-311v1592zm989-299c-44 24-97 37-155 37-111 0-173-55-173-193V725h339V461h-339V111h-305v350h-240v264h240v536c0 266 152 406 396 406 91 0 162-16 237-53zm534-1160c0-108-85-186-207-186-119 0-203 78-203 186 0 104 84 182 203 182 122 0 207-78 207-182zm-49 1459V461h-308v1184zm1349-293h-734V971h652V681h-652V346h718V53h-1055v1592h1071zm520 293V984c0-177 97-272 221-272 135 0 206 99 206 266v667h306V984c0-177 100-272 222-272 135 0 206 99 206 266v667h306V880c0-284-162-441-401-441-178 0-297 80-390 211-60-136-184-211-346-211-158 0-268 71-355 191V461h-284v1184zm2064-1459c0-108-84-186-206-186-120 0-204 78-204 186 0 104 84 182 204 182 122 0 206-78 206-182zm-48 1459V461h-309v1184zm1251-379c0-171-118-277-348-322l-228-42c-107-20-156-49-156-119 0-76 76-118 189-118 131 0 217 71 228 186h295c-22-255-226-412-523-412-295 0-483 153-483 372 0 184 128 302 341 339l213 40c113 23 162 54 162 129 0 84-91 122-211 122-153 0-257-78-259-200h-295c24 264 213 426 550 426 336 0 525-153 525-401zm1187 0c0-171-118-277-348-322l-228-42c-107-20-156-49-156-119 0-76 76-118 189-118 131 0 217 71 228 186h295c-22-255-226-412-523-412-295 0-483 153-483 372 0 184 128 302 341 339l213 40c113 23 162 54 162 129 0 84-91 122-211 122-153 0-257-78-259-200h-295c24 264 213 426 550 426 336 0 525-153 525-401zm710 401c344 0 601-271 601-614 0-346-257-614-601-614-343 0-600 268-600 614 0 343 257 614 600 614zm0-273c-153 0-283-122-283-341s130-339 283-339 284 120 284 339-131 341-284 341zm1083-323c0-262 175-324 437-304V448c-191 0-375 91-461 241V461h-284v1184h308z"/></svg>